<svg width="45" height="30" viewBox="0 0 45 30" xmlns="http://www.w3.org/2000/svg">
<path d="M0.751953 5C0.751953 3.67392 1.32426 2.40215 2.34296 1.46447C3.36166 0.526784 4.74332 0 6.18399 0H38.7762C40.2169 0 41.5985 0.526784 42.6172 1.46447C43.6359 2.40215 44.2082 3.67392 44.2082 5V25C44.2082 26.3261 43.6359 27.5979 42.6172 28.5355C41.5985 29.4732 40.2169 30 38.7762 30H6.18399C4.74332 30 3.36166 29.4732 2.34296 28.5355C1.32426 27.5979 0.751953 26.3261 0.751953 25V5ZM6.18399 2.5C5.46366 2.5 4.77283 2.76339 4.26347 3.23223C3.75412 3.70107 3.46797 4.33696 3.46797 5V5.5425L22.4801 16.0425L41.4922 5.5425V5C41.4922 4.33696 41.2061 3.70107 40.6967 3.23223C40.1874 2.76339 39.4965 2.5 38.7762 2.5H6.18399ZM41.4922 8.4575L28.7052 15.52L41.4922 22.7625V8.4575ZM41.3999 25.6475L26.0815 16.97L22.4801 18.9575L18.8787 16.97L3.56032 25.645C3.71466 26.177 4.05549 26.6472 4.52991 26.9826C5.00432 27.3181 5.58577 27.4999 6.18399 27.5H38.7762C39.3741 27.5001 39.9552 27.3186 40.4296 26.9836C40.904 26.6487 41.245 26.179 41.3999 25.6475ZM3.46797 22.7625L16.255 15.52L3.46797 8.4575V22.7625Z"/>
</svg>
