<svg width="320" height="160" viewBox="0 0 320 160" fill="none" xmlns="http://www.w3.org/2000/svg">
<path d="M320 0V160H61.4148V104.086C72.145 90.6594 82.8819 77.2331 93.6121 63.8143C93.6053 92.8834 93.6053 121.953 93.5986 151.014C102.045 151.014 110.484 151.007 118.931 151.007C118.931 136.083 118.924 121.151 118.924 106.227C116.789 106.227 114.66 106.227 112.525 106.227C112.518 118.927 112.518 131.62 112.512 144.32C108.221 144.32 103.93 144.32 99.6394 144.327C99.6394 114.981 99.6394 85.6348 99.6394 56.2887C103.937 50.9196 108.234 45.5431 112.525 40.1741C112.518 48.2613 112.512 56.3486 112.505 64.4433C114.64 64.4433 116.782 64.4358 118.917 64.4358C118.917 51.2416 118.917 38.0475 118.917 24.8458C112.491 32.8806 106.065 40.9229 99.6394 48.9577C99.6394 36.138 99.6394 23.3107 99.6394 10.4909C86.8956 26.4408 74.1585 42.3906 61.4148 58.3404C61.4148 63.0355 61.4148 67.7306 61.4148 72.4257C50.6913 59.0144 39.9679 45.603 29.2445 32.1917C29.2445 40.3014 29.2445 48.4111 29.2445 56.5208C39.9679 69.9321 50.6913 83.3435 61.4148 96.7548C61.4148 88.6451 61.4148 80.5354 61.4148 72.4182C72.145 59.0069 82.8751 45.5881 93.6053 32.1767C93.6053 40.2789 93.6121 48.3811 93.6121 56.4908C82.8819 69.9097 72.145 83.336 61.4148 96.7548C61.4148 99.2034 61.4148 101.645 61.4148 104.093C50.6913 90.6819 39.9679 77.2706 29.2445 63.8592V151.022H3.90557V106.227C3.07445 105.426 1.80413 103.996 0.945987 101.839C0.128385 99.8025 0 98.0278 0 97.0394V76.3195C0.175683 75.7205 0.689218 75.3161 1.26357 75.3161C1.83116 75.3161 2.33794 75.7205 2.52038 76.3195V95.3395H3.90557V76.3195C4.08801 75.7205 4.60155 75.3086 5.17589 75.3161C5.74349 75.3161 6.25027 75.728 6.42595 76.3195V95.3395H7.81114V76.3195C7.98007 75.713 8.4936 75.3012 9.06795 75.3161C9.6423 75.3236 10.1491 75.7654 10.2977 76.3869V95.3395H11.6762V76.3195C11.8789 75.6905 12.4262 75.2787 13.0141 75.3161C13.5479 75.3461 14.0209 75.743 14.2033 76.3195V97.0244C14.0006 98.2899 13.6222 99.9747 12.8451 101.817C12.0343 103.756 11.0748 105.224 10.2977 106.227V144.327H23.1429V56.2213C18.8589 50.8672 14.5817 45.5132 10.2977 40.1591V64.4283C8.16927 64.4283 6.03404 64.4208 3.90557 64.4208V24.8308C10.318 32.8507 16.7304 40.8705 23.1429 48.8903V10.476C35.9002 26.4258 48.6575 42.3756 61.4148 58.3255C61.4148 38.8861 61.4148 19.4393 61.4148 0H320Z" fill="#E94E1B"/>
<path d="M202.292 13.8604V73.3465H191.426V25.482L175.716 54.3415L170.155 64.5778L166.75 59.2912L150.053 33.4944V73.3465H144.641V13.8604H150.053L172.351 49.0174L191.426 13.8604H202.292Z" fill="white"/>
<path d="M238.32 43.6028L248.651 73.3459H238.624L236.239 66.4268L235.029 62.9897L234.272 60.8931L233.819 59.4703L233.779 59.3879H215.609L215.569 59.4703L215.042 60.938L214.359 62.9972L210.764 73.3609H207.318L217.65 43.6178L227.981 13.8748L238.32 43.6028ZM231.617 53.1652L224.691 33.2392L218.974 49.6383L217.609 53.5846L217.569 53.7119L217.15 54.8426L216.771 55.9359L216.731 56.0182H232.59L231.617 53.1652Z" fill="white"/>
<path d="M264.545 13.8604V69.8195V73.3465H253.68V69.8195V13.8604H264.545Z" fill="white"/>
<path d="M274.977 13.8604L298.937 52.2448V13.8604H304.39V60.9685V73.3465H298.937L274.977 34.9171V73.3465H269.564V26.2383V13.8604H274.977Z" fill="white"/>
<path d="M195.319 92.4041V144.926H185.724V102.663L171.852 128.145L166.939 137.183L163.932 132.518L149.195 109.739V144.926H144.418V92.4041H149.195L168.878 123.443L185.724 92.4041H195.319Z" fill="white"/>
<path d="M209.313 92.4041H229.598V95.5191H209.313V117.115H222.016V120.23H209.313V141.826H229.598V144.941H209.313H199.752V141.826V120.23V117.115V95.5191V92.4041H209.313Z" fill="white"/>
<path d="M238.819 92.4041L259.975 126.296V92.4041H264.786V134.001V144.926H259.975L238.819 110.997V144.926H234.035V103.329V92.4041H238.819Z" fill="white"/>
<path d="M278.815 92.4042V97.7358V113.955V125.03C278.815 127.696 279.186 130.137 279.936 132.346C280.68 134.555 281.693 136.315 282.964 137.625C284.234 138.936 285.626 139.587 287.139 139.587C288.68 139.587 290.072 138.936 291.336 137.625C292.592 136.315 293.599 134.555 294.363 132.346C295.12 130.137 295.498 127.696 295.498 125.03V113.955V97.7358V92.4042H305.059V125.03C305.059 128.684 304.248 132.009 302.633 135.012C301.018 138.015 298.856 140.411 296.147 142.216C293.437 144.02 290.437 144.919 287.139 144.919C283.862 144.919 280.869 144.02 278.153 142.216C275.436 140.411 273.267 138.015 271.652 135.012C270.037 132.009 269.227 128.684 269.227 125.03V92.3967H278.815V92.4042Z" fill="white"/>
</svg>
