<svg width="33" height="30" viewBox="0 0 33 30" xmlns="http://www.w3.org/2000/svg">
<path d="M7.81335 2.49055C7.6931 2.34817 7.54131 2.23096 7.36806 2.14672C7.19482 2.06249 7.00408 2.01314 6.80853 2.00197C6.61297 1.9908 6.41707 2.01805 6.23384 2.08192C6.05061 2.1458 5.88424 2.24482 5.74578 2.37243L3.63951 4.31305C2.65563 5.22055 2.29304 6.50493 2.72285 7.6318C4.50674 12.296 7.40858 16.5307 11.2131 20.0218C15.0059 23.5237 19.6065 26.1947 24.6737 27.8368C25.898 28.2324 27.2933 27.8987 28.2792 26.9931L30.3855 25.0543C30.5241 24.9269 30.6317 24.7737 30.7011 24.6051C30.7705 24.4364 30.8001 24.2561 30.788 24.0761C30.7758 23.8961 30.7222 23.7205 30.6307 23.561C30.5392 23.4016 30.4119 23.2619 30.2572 23.1512L25.5578 19.7874C25.3925 19.6694 25.2003 19.5876 24.9956 19.5479C24.791 19.5083 24.5792 19.512 24.3763 19.5587L19.9152 20.5843C19.3198 20.7213 18.6959 20.714 18.1044 20.5632C17.5129 20.4124 16.9739 20.1232 16.5399 19.7237L11.537 15.1168C11.1027 14.7175 10.7881 14.2215 10.6238 13.677C10.4596 13.1325 10.4514 12.5582 10.6 12.0099L11.7163 7.90368C11.767 7.71692 11.771 7.52199 11.7279 7.33361C11.6849 7.14522 11.5959 6.9683 11.4677 6.81618L7.81335 2.49055ZM4.20783 0.958678C4.5643 0.630458 4.99255 0.375798 5.46414 0.211605C5.93573 0.0474133 6.43988 -0.022553 6.9431 0.00635257C7.44632 0.0352581 7.9371 0.162374 8.38286 0.379259C8.82861 0.596145 9.21914 0.897837 9.52851 1.2643L13.1829 5.58805C13.8531 6.38118 14.0894 7.4143 13.8246 8.3893L12.7103 12.4956C12.6527 12.7082 12.6558 12.931 12.7194 13.1423C12.7829 13.3535 12.9047 13.546 13.0729 13.7012L18.0779 18.3081C18.2466 18.4632 18.4561 18.5755 18.686 18.634C18.9159 18.6925 19.1583 18.6952 19.3897 18.6418L23.8487 17.6162C24.3714 17.4959 24.917 17.4865 25.4443 17.5889C25.9715 17.6912 26.4666 17.9025 26.892 18.2068L31.5894 21.5706C33.2781 22.7799 33.4329 25.0768 31.9214 26.4662L29.8151 28.4049C28.3077 29.7924 26.0548 30.4018 23.9546 29.7212C18.5793 27.9803 13.6988 25.1477 9.67518 21.4337C5.64044 17.7306 2.56317 13.2389 0.671578 8.2918C-0.065821 6.36055 0.596208 4.28493 2.1036 2.89743L4.20987 0.958678H4.20783Z"/>
</svg>
