<svg width="33" height="30" viewBox="0 0 33 30"  xmlns="http://www.w3.org/2000/svg">
<path d="M27.8307 4.36133C26.3297 2.97323 24.5423 1.87273 22.5725 1.12397C20.6027 0.375215 18.49 -0.00683299 16.3575 9.24945e-05C7.42165 9.24945e-05 0.139143 6.67132 0.130958 14.8613C0.130958 17.4844 0.879876 20.0363 2.29382 22.2956L0 30L8.60232 27.9338C10.9821 29.1205 13.6482 29.7425 16.3575 29.7431H16.3657C25.3036 29.7431 32.5841 23.0719 32.5922 14.8744C32.5943 12.9208 32.1744 10.986 31.3569 9.18171C30.5393 7.37739 29.3423 5.73913 27.8307 4.36133ZM16.3575 27.2269C13.9409 27.2276 11.5687 26.6317 9.49038 25.5019L8.99929 25.2319L3.89601 26.4581L5.25879 21.8963L4.93958 21.4257C3.58868 19.4575 2.87422 17.1788 2.87904 14.8538C2.87904 8.05507 8.92972 2.50883 16.3657 2.50883C18.1372 2.50592 19.8918 2.82435 21.5284 3.44575C23.1649 4.06716 24.6511 4.97925 25.9011 6.12945C27.1555 7.27516 28.1499 8.63711 28.827 10.1367C29.5041 11.6364 29.8505 13.244 29.8462 14.8669C29.838 21.69 23.7873 27.2269 16.3575 27.2269ZM23.7546 17.9757C23.3515 17.79 21.3605 16.8919 20.9861 16.7644C20.6137 16.6425 20.3415 16.5788 20.0755 16.95C19.8033 17.3194 19.0258 18.1613 18.7925 18.4032C18.5592 18.6525 18.3178 18.6807 17.9126 18.4969C17.5095 18.3094 16.202 17.9194 14.6551 16.65C13.4478 15.6657 12.6395 14.4469 12.3981 14.0775C12.1648 13.7063 12.3756 13.5076 12.5781 13.3219C12.7562 13.1569 12.9812 12.8869 13.1838 12.6732C13.3884 12.4594 13.456 12.3019 13.589 12.0544C13.722 11.8032 13.6585 11.5894 13.5583 11.4038C13.456 11.2182 12.6477 9.38631 12.306 8.64756C11.9786 7.91819 11.6451 8.01944 11.3954 8.01007C11.1621 7.99694 10.89 7.99694 10.6179 7.99694C10.4123 8.00162 10.2101 8.04518 10.0238 8.12488C9.83755 8.20457 9.67126 8.31869 9.5354 8.46007C9.16299 8.83132 8.12146 9.72944 8.12146 11.5613C8.12146 13.3932 9.57428 15.1538 9.7789 15.4032C9.97943 15.6525 12.6313 19.4007 16.7013 21.0132C17.663 21.3975 18.4201 21.6244 19.0115 21.7969C19.9834 22.0819 20.8612 22.0388 21.5611 21.9469C22.3386 21.8382 23.9572 21.0469 24.2989 20.1788C24.6345 19.3088 24.6345 18.5663 24.5322 18.4107C24.4319 18.2532 24.1598 18.1613 23.7546 17.9757Z"/>
</svg>
