<svg width="83" height="62" viewBox="0 0 83 62" fill="none" xmlns="http://www.w3.org/2000/svg">
<path d="M30.0143 0.497162V28.3813H24.4811V5.94481L16.4806 19.4727L13.6487 24.271L11.9144 21.7929L3.41155 9.70061V28.3813H0.655273V0.497162H3.41155L14.767 16.977L24.4811 0.497162H30.0143Z" fill="white"/>
<path d="M48.3656 14.4392L53.627 28.3813H48.5205L47.3058 25.138L46.6898 23.5268L46.3045 22.544L46.0739 21.8771L46.0533 21.8385H36.8003L36.7796 21.8771L36.5112 22.5651L36.1637 23.5303L34.3331 28.3883H32.5781L37.8395 14.4462L43.1008 0.504181L48.3656 14.4392ZM44.9521 18.9216L41.4251 9.58126L38.5139 17.2684L37.8188 19.1182L37.7982 19.1778L37.5848 19.7079L37.3922 20.2203L37.3715 20.2589H45.4476L44.9521 18.9216Z" fill="white"/>
<path d="M61.7207 0.497162V26.728V28.3813H56.1875V26.728V0.497162H61.7207Z" fill="white"/>
<path d="M67.0336 0.497162L79.2356 18.4899V0.497162H82.0125V22.5791V28.3813H79.2356L67.0336 10.3675V28.3813H64.2773V6.29933V0.497162H67.0336Z" fill="white"/>
<path d="M26.4673 37.3145V61.9342H21.581V42.1233L14.5165 54.0681L12.0149 58.3048L10.4836 56.118L2.97872 45.4403V61.9342H0.545898V37.3145H2.97872L13.0025 51.8638L21.581 37.3145H26.4673Z" fill="white"/>
<path d="M33.5937 37.3145H43.9237V38.7746H33.5937V48.8977H40.0629V50.3579H33.5937V60.481H43.9237V61.9412H33.5937H28.7246V60.481V50.3579V48.8977V38.7746V37.3145H33.5937Z" fill="white"/>
<path d="M48.6199 37.3145L59.3938 53.2011V37.3145H61.8438V56.813V61.9342H59.3938L48.6199 46.03V61.9342H46.1836V42.4357V37.3145H48.6199Z" fill="white"/>
<path d="M68.9883 37.3145V39.8136V47.4165V52.6079C68.9883 53.8575 69.1776 55.0018 69.5595 56.0373C69.9381 57.0727 70.4542 57.8976 71.1011 58.5119C71.7481 59.1261 72.4569 59.4315 73.2277 59.4315C74.0123 59.4315 74.7211 59.1261 75.3646 58.5119C76.0046 57.8976 76.5174 57.0727 76.9062 56.0373C77.2916 55.0018 77.4843 53.8575 77.4843 52.6079V47.4165V39.8136V37.3145H82.3534V52.6079C82.3534 54.3208 81.9405 55.8793 81.118 57.2868C80.2956 58.6944 79.1945 59.8176 77.8146 60.6635C76.4348 61.5095 74.9069 61.9307 73.2277 61.9307C71.5588 61.9307 70.0344 61.5095 68.6511 60.6635C67.2678 59.8176 66.1632 58.6944 65.3408 57.2868C64.5184 55.8793 64.1055 54.3208 64.1055 52.6079V37.3109H68.9883V37.3145Z" fill="white"/>
</svg>
